<svg height="500pt" preserveAspectRatio="xMidYMid meet" viewBox="0 0 500 500" width="500pt" xmlns="http://www.w3.org/2000/svg"><g transform="matrix(.1 0 0 -.1 0 500)"><path d="m2300 4300c-428-53-805-235-1106-535-254-253-429-581-505-951-30-145-37-449-15-604 76-518 354-969 779-1263 220-152 438-242 722-299 147-30 488-32 635-5 637 119 1159 537 1397 1122 139 340 173 693 103 1060-74 379-294 764-584 1016-340 298-732 451-1183 463-92 3-202 1-243-4zm495-614c188-29 328-74 441-142 76-46 99-67 141-131l33-53-2-868-3-868-31-47c-77-119-286-219-549-263-132-22-379-29-520-15-348 34-613 149-687 298l-23 48-3 825c-2 534 1 842 8 873 27 128 159 225 402 297 57 17 144 37 193 44 122 19 482 20 600 2z"/><path d="m2319 3640c-276-27-491-102-601-211-68-67-80-106-53-174 51-136 345-258 679-281l96-7-7-26c-3-14-7-28-9-30-6-7-232 19-309 35-177 37-326 99-416 175l-49 41v-124c0-99 4-131 19-165 23-50 102-115 186-153 51-23 88-36 214-76 9-3 5-11-14-26-26-20-28-21-88-4-84 23-209 87-268 137l-49 41v-146c0-169 6-191 71-254 79-76 264-153 437-182 70-11 72-13 72-41 0-16-5-29-11-29s-55 9-110 20c-177 36-336 105-416 180l-43 39v-145c0-171 6-191 84-261 87-78 256-143 471-180 151-25 463-23 615 5 207 38 367 100 458 177 64 56 72 82 72 251v148l-27-26c-99-91-306-174-507-203-43-6-48-5-42 10 3 9 6 23 6 30 0 8 15 17 38 20 226 37 432 130 503 227l29 41v159 160l-47-42c-51-45-174-108-263-135-54-17-57-17-90 3-23 15-29 23-19 26 8 2 41 12 74 21 144 40 292 132 331 206 10 20 14 65 14 159v132l-45-40c-119-105-369-185-648-208l-87-7v30 30l93 7c258 19 506 99 614 199 54 50 73 84 73 132 0 105-106 194-317 265-185 62-491 92-714 70zm-111-1020c18 0 22-6 22-30 0-26-4-30-28-30-22 0-31 7-44 36-16 35-16 36 5 30 12-3 32-6 45-6zm649-8c-10-10-17-23-17-29 0-12-23-23-46-23-9 0-14 11-14 29 0 30 8 34 74 40 18 1 18 0 3-17zm-427-42c0-27-3-30-30-30s-30 3-30 30 3 30 30 30 30-3 30-30zm200 0c0-27-3-30-30-30-25 0-30 4-30 23 0 13 3 27 7 30 3 4 17 7 30 7 19 0 23-5 23-30zm-200-420c0-23-5-30-19-30-36 0-48 10-43 36 3 19 11 24 33 24 26 0 29-4 29-30zm205 9c9-27-6-42-36-37-18 2-25 10-27 31-3 24 0 27 27 27 21 0 31-6 36-21z"/><path d="m1650 1817c0-127 4-159 19-194 46-101 229-194 485-246 96-19 142-22 346-22 206 0 249 3 350 23 204 41 344 99 427 175 70 64 73 75 73 253v158l-27-26c-104-95-281-165-518-204-149-25-446-25-603-1-217 34-420 112-509 196l-43 40z"/></g></svg>